<svg width="179" height="285" viewBox="0 0 179 285" fill="none" xmlns="http://www.w3.org/2000/svg">
<g clip-path="url(#clip0_18_193)">
<path d="M283.138 295.523L-2 45.4796V44.4492L284.312 295.523H283.138Z" fill="#212121"/>
<path d="M259.329 295.523L-2 66.3575V65.3271L260.504 295.523H259.329Z" fill="#212121"/>
<path d="M235.521 295.523L-2 87.2355V86.2051L236.696 295.523H235.521Z" fill="#212121"/>
<path d="M211.712 295.523L-2 108.113V107.083L212.887 295.523H211.712Z" fill="#212121"/>
<path d="M187.904 295.523L-2 128.991V127.961L189.079 295.523H187.904Z" fill="#212121"/>
<path d="M164.096 295.524L-2 149.87V148.84L165.271 295.524H164.096Z" fill="#212121"/>
<path d="M140.287 295.523L-2 170.748V169.718L141.462 295.523H140.287Z" fill="#212121"/>
<path d="M116.479 295.523L-2 191.626V190.596L117.654 295.523H116.479Z" fill="#212121"/>
<path d="M92.6708 295.523L-2 212.504V211.474L93.8458 295.523H92.6708Z" fill="#212121"/>
<path d="M68.8625 295.523L-2 233.382V232.352L70.0375 295.523H68.8625Z" fill="#212121"/>
<path d="M45.0542 295.523L-2 254.26V253.229L46.2292 295.523H45.0542Z" fill="#212121"/>
<path d="M21.2458 295.523L-2 275.138V274.107L22.4208 295.523H21.2458Z" fill="#212121"/>
<path d="M306.946 295.523L-2 24.6017V23.5713L308.121 295.523H306.946Z" fill="#212121"/>
<path d="M330.754 295.524L-2 3.72375V2.69336L331.929 295.524H330.754Z" fill="#212121"/>
<path d="M354.562 295.523L-2 -17.1552V-18.1855L355.737 295.523H354.562Z" fill="#212121"/>
<path d="M378.371 295.523L-2 -38.0331V-39.0635L379.546 295.523H378.371Z" fill="#212121"/>
<path d="M402.179 295.523L-2 -58.911V-59.9414L403.354 295.523H402.179Z" fill="#212121"/>
<path d="M425.988 295.523L-2 -79.7889V-80.8193L427.163 295.523H425.988Z" fill="#212121"/>
<path d="M449.796 295.523L-2 -100.667V-101.697L450.971 295.523H449.796Z" fill="#212121"/>
<path d="M473.604 295.523L-2 -121.545V-122.575L474.779 295.523H473.604Z" fill="#212121"/>
<path d="M-2 -142.938H-1.4125L498 295.008V295.523H497.412L-2 -142.423V-142.938Z" fill="#212121"/>
<path d="M22.3958 -142.938L498 274.13V275.16L21.2208 -142.938H22.3958Z" fill="#212121"/>
<path d="M46.2042 -142.938L498 253.252V254.282L45.0292 -142.938H46.2042Z" fill="#212121"/>
<path d="M70.0125 -142.938L498 232.374V233.404L68.8375 -142.938H70.0125Z" fill="#212121"/>
<path d="M93.8208 -142.938L498 211.496V212.526L92.6458 -142.938H93.8208Z" fill="#212121"/>
<path d="M117.629 -142.938L498 190.618V191.648L116.454 -142.938H117.629Z" fill="#212121"/>
<path d="M141.438 -142.938L498 169.739V170.77L140.263 -142.938H141.438Z" fill="#212121"/>
<path d="M165.246 -142.938L498 148.861V149.892L164.071 -142.938H165.246Z" fill="#212121"/>
<path d="M271.054 295.523L-2 56.0753V55.0449L272.229 295.523H271.054Z" fill="#212121"/>
<path d="M247.246 295.523L-2 76.9532V75.9229L248.421 295.523H247.246Z" fill="#212121"/>
<path d="M223.438 295.523L-2 97.8321V96.8018L224.613 295.523H223.438Z" fill="#212121"/>
<path d="M199.629 295.523L-2 118.71V117.68L200.804 295.523H199.629Z" fill="#212121"/>
<path d="M175.821 295.523L-2 139.588V138.558L176.996 295.523H175.821Z" fill="#212121"/>
<path d="M152.012 295.523L-2 160.466V159.436L153.188 295.523H152.012Z" fill="#212121"/>
<path d="M128.204 295.523L-2 181.344V180.313L129.379 295.523H128.204Z" fill="#212121"/>
<path d="M104.396 295.523L-2 202.222V201.191L105.571 295.523H104.396Z" fill="#212121"/>
<path d="M80.5875 295.523L-2 223.1V222.069L81.7625 295.523H80.5875Z" fill="#212121"/>
<path d="M56.7792 295.523L-2 243.979V242.948L57.9542 295.523H56.7792Z" fill="#212121"/>
<path d="M32.9708 295.523L-2 264.857V263.826L34.1458 295.523H32.9708Z" fill="#212121"/>
<path d="M9.1625 295.523L-2 285.734V284.704L10.3375 295.523H9.1625Z" fill="#212121"/>
<path d="M294.862 295.523L-2 35.1974V34.167L296.037 295.523H294.862Z" fill="#212121"/>
<path d="M318.671 295.523L-2 14.3194V13.2891L319.846 295.523H318.671Z" fill="#212121"/>
<path d="M342.479 295.523L-2 -6.55848V-7.58887L343.654 295.523H342.479Z" fill="#212121"/>
<path d="M366.288 295.523L-2 -27.4364V-28.4668L367.463 295.523H366.288Z" fill="#212121"/>
<path d="M390.096 295.524L-2 -48.3143V-49.3447L391.271 295.524H390.096Z" fill="#212121"/>
<path d="M413.904 295.523L-2 -69.1932V-70.2236L415.079 295.523H413.904Z" fill="#212121"/>
<path d="M437.713 295.523L-2 -90.0712V-91.1016L438.888 295.523H437.713Z" fill="#212121"/>
<path d="M461.521 295.523L-2 -110.949V-111.979L462.696 295.523H461.521Z" fill="#212121"/>
<path d="M485.329 295.523L-2 -131.827V-132.857L486.504 295.523H485.329Z" fill="#212121"/>
<path d="M10.3125 -142.938L498 284.726V285.756L9.13751 -142.938H10.3125Z" fill="#212121"/>
<path d="M34.1209 -142.938L498 263.848V264.878L32.9459 -142.938H34.1209Z" fill="#212121"/>
<path d="M57.9292 -142.938L498 242.97V244L56.7542 -142.938H57.9292Z" fill="#212121"/>
<path d="M81.7375 -142.938L498 222.092V223.122L80.5625 -142.938H81.7375Z" fill="#212121"/>
<path d="M105.546 -142.938L498 201.214V202.244L104.371 -142.938H105.546Z" fill="#212121"/>
<path d="M129.354 -142.938L498 180.336V181.366L128.179 -142.938H129.354Z" fill="#212121"/>
<path d="M153.162 -142.938L498 159.457V160.488L151.987 -142.938H153.162Z" fill="#212121"/>
<path d="M176.971 -142.938L498 138.579V139.61L175.796 -142.938H176.971Z" fill="#212121"/>
</g>
<defs>
<clipPath id="clip0_18_193">
<rect width="179" height="285" fill="white"/>
</clipPath>
</defs>
</svg>
